<svg width="300" height="300" viewBox="0 0 300 300" fill="none" xmlns="http://www.w3.org/2000/svg">
<g clip-path="url(#clip0_1204_2)">
<path d="M300.48 74.25C302.811 74.2341 305.053 75.1449 306.713 76.7821C308.373 78.4193 309.314 80.6488 309.33 82.98C309.346 85.3113 308.435 87.5534 306.798 89.2131C305.161 90.8728 302.931 91.8141 300.6 91.83C299.446 91.8379 298.301 91.6184 297.232 91.184C296.162 90.7495 295.189 90.1087 294.367 89.298C293.545 88.4873 292.891 87.5227 292.442 86.4593C291.993 85.3958 291.758 84.2544 291.75 83.1C291.738 81.9471 291.954 80.8032 292.385 79.7339C292.816 78.6646 293.454 77.691 294.263 76.8687C295.071 76.0465 296.033 75.392 297.095 74.9426C298.157 74.4932 299.297 74.2579 300.45 74.25H300.48ZM0.479976 74.25C2.81123 74.2341 5.05332 75.1449 6.71302 76.7821C8.37271 78.4193 9.31406 80.6488 9.32998 82.98C9.34589 85.3113 8.43506 87.5534 6.79787 89.2131C5.16068 90.8728 2.93123 91.8141 0.599976 91.83C-0.554351 91.8379 -1.69893 91.6184 -2.76841 91.184C-3.83789 90.7495 -4.81132 90.1087 -5.63313 89.298C-6.45493 88.4873 -7.10901 87.5227 -7.55802 86.4593C-8.00703 85.3958 -8.24217 84.2544 -8.25002 83.1C-8.2619 81.9471 -8.04606 80.8032 -7.6149 79.7339C-7.18374 78.6646 -6.54573 77.691 -5.73746 76.8687C-4.92919 76.0465 -3.96656 75.392 -2.90478 74.9426C-1.843 74.4932 -0.702957 74.2579 0.449976 74.25H0.479976ZM29.19 233.79C33.99 233.79 37.89 237.69 37.89 242.49C37.8939 243.655 37.6679 244.809 37.2249 245.886C36.782 246.963 36.1307 247.942 35.3085 248.767C34.4863 249.592 33.5094 250.247 32.4337 250.694C31.358 251.14 30.2047 251.37 29.04 251.37C27.8975 251.37 26.7662 251.145 25.7106 250.708C24.6551 250.271 23.696 249.63 22.8881 248.822C22.0803 248.014 21.4394 247.055 21.0022 245.999C20.565 244.944 20.34 243.813 20.34 242.67C20.336 241.505 20.562 240.351 21.005 239.274C21.448 238.197 22.0993 237.218 22.9214 236.393C23.7436 235.568 24.7206 234.913 25.7963 234.467C26.872 234.02 28.0252 233.79 29.19 233.79ZM204.9 226.26C207.231 226.244 209.473 227.155 211.133 228.792C212.793 230.429 213.734 232.659 213.75 234.99C213.766 237.321 212.855 239.563 211.218 241.223C209.581 242.883 207.351 243.824 205.02 243.84C202.689 243.856 200.447 242.945 198.787 241.308C197.127 239.671 196.186 237.441 196.17 235.11C196.154 232.779 197.065 230.537 198.702 228.877C200.339 227.217 202.569 226.276 204.9 226.26ZM148.35 13.2C150.681 13.1841 152.923 14.0949 154.583 15.7321C156.243 17.3693 157.184 19.5988 157.2 21.93C157.216 24.2613 156.305 26.5034 154.668 28.1631C153.031 29.8228 150.801 30.7641 148.47 30.78C146.139 30.7959 143.897 29.8851 142.237 28.2479C140.577 26.6107 139.636 24.3813 139.62 22.05C139.604 19.7188 140.515 17.4767 142.152 15.817C143.789 14.1573 146.019 13.2159 148.35 13.2ZM64.98 148.8L73.83 157.53L65.13 166.38L56.28 157.68L64.98 148.8ZM195.63 110.25C195.63 110.25 204.33 114.15 204.33 118.95V119.1C204.33 123.9 200.43 127.8 195.63 127.8H195.51C190.71 127.8 186.81 119.1 186.81 119.1L195.63 110.25Z" fill="#8059D4" fill-opacity="0.2"/>
<path d="M269.79 172.44C269.445 171.726 269.373 170.911 269.589 170.148C269.804 169.385 270.292 168.727 270.96 168.3C278.28 163.71 286.08 162.87 292.41 165.9C298.71 168.99 302.82 175.68 303.72 184.29C304.38 190.71 307.14 195.42 311.46 197.55C315.78 199.65 321.18 198.9 326.67 195.48C327.38 195.143 328.19 195.078 328.945 195.298C329.699 195.518 330.347 196.007 330.765 196.673C331.184 197.339 331.343 198.135 331.213 198.911C331.083 199.686 330.672 200.387 330.06 200.88C322.74 205.5 314.94 206.37 308.64 203.31C302.34 200.25 298.2 193.56 297.33 184.95C296.64 178.5 293.88 173.79 289.56 171.69C285.24 169.59 279.84 170.31 274.35 173.73C272.85 174.69 270.87 174.21 269.94 172.74L269.79 172.44ZM299.97 265.77C300.581 265.563 301.247 265.589 301.84 265.844C302.433 266.099 302.91 266.564 303.18 267.15C306.15 273.57 306.03 279.99 302.88 284.79C299.73 289.59 293.88 292.23 286.8 292.05C281.52 291.93 277.41 293.67 275.25 296.94C273.09 300.24 273.12 304.71 275.34 309.48C275.484 309.793 275.564 310.132 275.577 310.476C275.59 310.82 275.535 311.164 275.416 311.487C275.296 311.81 275.114 312.107 274.879 312.359C274.645 312.612 274.363 312.816 274.05 312.96C273.737 313.104 273.398 313.185 273.054 313.198C272.709 313.211 272.366 313.156 272.043 313.036C271.72 312.916 271.423 312.734 271.171 312.499C270.918 312.265 270.714 311.983 270.57 311.67C267.6 305.28 267.72 298.86 270.87 294.06C274.02 289.26 279.87 286.62 286.95 286.8C292.23 286.92 296.34 285.18 298.5 281.91C300.66 278.61 300.63 274.14 298.41 269.37C298.251 269.034 298.166 268.669 298.16 268.297C298.154 267.926 298.227 267.558 298.375 267.217C298.522 266.876 298.741 266.571 299.016 266.321C299.291 266.072 299.616 265.884 299.97 265.77ZM299.97 -34.2299C300.581 -34.4374 301.247 -34.4112 301.84 -34.1563C302.433 -33.9015 302.91 -33.4361 303.18 -32.8499C306.15 -26.4299 306.03 -20.01 302.88 -15.21C299.73 -10.41 293.88 -7.76995 286.8 -7.94995C281.52 -8.06995 277.41 -6.32995 275.25 -3.05995C273.09 0.24005 273.12 4.71005 275.34 9.48005C275.484 9.79325 275.564 10.1317 275.577 10.4761C275.59 10.8205 275.535 11.1641 275.416 11.4872C275.296 11.8104 275.114 12.1068 274.879 12.3595C274.645 12.6122 274.363 12.8163 274.05 12.9601C273.737 13.1038 273.398 13.1845 273.054 13.1975C272.709 13.2105 272.366 13.1556 272.043 13.0358C271.72 12.916 271.423 12.7337 271.171 12.4994C270.918 12.2651 270.714 11.9833 270.57 11.67C267.6 5.28005 267.72 -1.13995 270.87 -5.93995C274.02 -10.74 279.87 -13.38 286.95 -13.2C292.23 -13.08 296.34 -14.82 298.5 -18.09C300.66 -21.39 300.63 -25.8599 298.41 -30.63C298.251 -30.9657 298.166 -31.3315 298.16 -31.7028C298.154 -32.0741 298.227 -32.4424 298.375 -32.7832C298.522 -33.124 298.741 -33.4293 299.016 -33.6788C299.291 -33.9283 299.616 -34.1162 299.97 -34.2299ZM28.3199 29.7001C28.7699 28.8001 29.9399 28.5301 31.0199 28.9801C36.6599 31.4401 40.4999 35.3401 41.6099 39.7201C42.7499 44.1301 40.9799 48.5101 36.8099 51.7801C33.6899 54.1801 32.3999 57.2101 33.1499 60.2101C33.9299 63.2101 36.6599 65.91 40.8599 67.71C42.0299 68.25 42.6599 69.45 42.2699 70.41C41.8799 71.43 40.6199 71.82 39.4799 71.31C33.8399 68.85 29.9999 64.9501 28.8599 60.5701C27.7499 56.1901 29.5199 51.7801 33.6599 48.5401C36.8099 46.1101 38.0999 43.08 37.3499 40.08C36.5699 37.08 33.8399 34.41 29.6099 32.58C28.4699 32.07 27.8399 30.87 28.2299 29.88L28.3199 29.67V29.7001ZM-30.2101 172.47C-30.5554 171.756 -30.627 170.941 -30.4114 170.178C-30.1957 169.415 -29.7078 168.757 -29.0401 168.33C-21.7201 163.74 -13.9201 162.9 -7.59006 165.93C-1.29006 169.02 2.81994 175.71 3.71994 184.32C4.37994 190.74 7.13994 195.45 11.4599 197.58C15.7799 199.68 21.1799 198.93 26.6699 195.51C27.3802 195.173 28.1896 195.108 28.9446 195.328C29.6995 195.548 30.3474 196.037 30.7655 196.703C31.1836 197.369 31.3427 198.165 31.2126 198.941C31.0826 199.716 30.6724 200.417 30.0599 200.91C22.7399 205.53 14.9399 206.4 8.63994 203.34C2.33994 200.25 -1.80006 193.56 -2.70006 184.95C-3.39006 178.5 -6.15006 173.79 -10.4701 171.69C-14.7901 169.59 -20.1901 170.31 -25.6801 173.73C-27.1801 174.69 -29.1601 174.21 -30.0901 172.74L-30.2401 172.44L-30.2101 172.47ZM-0.0300595 265.77C0.580939 265.563 1.24713 265.589 1.83993 265.844C2.43273 266.099 2.91012 266.564 3.17994 267.15C6.14994 273.57 6.02994 279.99 2.87994 284.79C-0.270058 289.59 -6.12006 292.23 -13.2001 292.05C-18.4801 291.93 -22.5901 293.67 -24.7501 296.94C-26.9101 300.24 -26.8801 304.71 -24.6601 309.48C-24.5163 309.793 -24.4356 310.132 -24.4226 310.476C-24.4096 310.82 -24.4645 311.164 -24.5843 311.487C-24.7041 311.81 -24.8864 312.107 -25.1207 312.359C-25.355 312.612 -25.6369 312.816 -25.9501 312.96C-26.2633 313.104 -26.6017 313.185 -26.9461 313.198C-27.2905 313.211 -27.6341 313.156 -27.9572 313.036C-28.2804 312.916 -28.5768 312.734 -28.8295 312.499C-29.0822 312.265 -29.2863 311.983 -29.4301 311.67C-32.4001 305.28 -32.2801 298.86 -29.1301 294.06C-25.9801 289.26 -20.1301 286.62 -13.0501 286.8C-7.77006 286.92 -3.66006 285.18 -1.50006 281.91C0.659941 278.61 0.629942 274.14 -1.59006 269.37C-1.74878 269.034 -1.83403 268.669 -1.8401 268.297C-1.84617 267.926 -1.77293 267.558 -1.62527 267.217C-1.47761 266.876 -1.25893 266.571 -0.983836 266.321C-0.708744 266.072 -0.383577 265.884 -0.0300595 265.77ZM131.73 251.22C131.01 249.78 131.43 247.98 132.81 247.08C140.04 242.31 147.81 241.29 154.2 244.2C160.59 247.11 164.85 253.71 165.96 262.29C166.77 268.71 169.65 273.39 174 275.37C178.38 277.38 183.75 276.51 189.15 272.97C189.859 272.502 190.724 272.334 191.556 272.503C192.388 272.672 193.119 273.163 193.59 273.87C194.55 275.37 194.16 277.35 192.69 278.31C185.49 283.08 177.69 284.13 171.3 281.19C164.94 278.28 160.65 271.68 159.57 263.1C158.73 256.68 155.88 252.03 151.5 250.02C147.12 248.01 141.75 248.88 136.35 252.42C134.88 253.38 132.87 253.02 131.91 251.52L131.73 251.22ZM123 137.01C121.59 137.76 119.79 137.31 118.86 135.96C114.03 128.79 112.86 121.02 115.71 114.63C118.53 108.21 125.1 103.83 133.65 102.63C140.07 101.73 144.66 98.82 146.61 94.44C148.56 90.03 147.63 84.66 144 79.29C143.01 77.82 143.4 75.84 144.84 74.85C146.34 73.86 148.29 74.25 149.34 75.69C154.14 82.86 155.34 90.63 152.46 97.02C149.64 103.44 143.1 107.82 134.52 109.02C128.13 109.92 123.51 112.83 121.56 117.21C119.61 121.62 120.54 126.99 124.17 132.36C125.16 133.83 124.8 135.81 123.33 136.83C123.21 136.86 123.12 136.95 123.03 137.01H123Z" fill="#E92063" fill-opacity="0.2"/>
<path d="M303 29.28L305.25 34.41L275.34 47.43L273.12 42.27L303 29.28ZM262.05 29.1L260.07 34.35L177.42 3.36L179.37 -1.92L262.05 29.1ZM124.2 -18.63L129.06 -15.84L102.6 30L97.74 27.18L124.2 -18.63ZM262.05 329.1L260.07 334.38L177.42 303.33L179.37 298.08L262.05 329.1ZM151.74 168.09L157.29 167.19L162.78 201.15L157.23 202.05L151.74 168.09ZM133.08 209.46L131.58 214.86L80.58 200.88L82.08 195.48L133.08 209.46ZM124.2 281.37L129.06 284.16L102.6 330L97.74 327.18L124.2 281.37ZM262.05 29.1L260.07 34.35L177.42 3.36L179.37 -1.92L262.05 29.1ZM238.74 156.78L241.05 162.06L192.03 183.39L189.72 178.14L238.74 156.78ZM2.99997 29.28L5.24997 34.41L-24.63 47.43L-26.88 42.27L2.99997 29.28ZM303 29.28L305.25 34.41L275.34 47.43L273.12 42.27L303 29.28ZM93.12 83.04L94.92 88.62L25.53 111.06L23.73 105.48L93.12 83.04ZM237.42 222.39L239.61 217.23L269.61 230.07L267.39 235.23L237.42 222.39ZM124.2 -18.6L129.06 -15.81L102.6 30L97.74 27.18L124.2 -18.6ZM202.62 33.6L207.48 36.42L185.7 74.13L180.84 71.31L202.62 33.6ZM63.66 271.05L61.86 266.85L90.6 254.37L92.4 258.54L63.66 271.05ZM271.56 121.68L267.06 125.04L235.5 82.65L240 79.29L271.56 121.68ZM262.05 329.1L260.07 334.38L177.42 303.33L179.37 298.08L262.05 329.1ZM124.2 281.4L129.06 284.19L102.6 330L97.74 327.18L124.2 281.4ZM2.99997 29.28L5.21997 34.41L-24.66 47.43L-26.91 42.27L2.99997 29.28Z" fill="#02A6F2" fill-opacity="0.2"/>
</g>
<defs>
<clipPath id="clip0_1204_2">
<rect width="300" height="300" fill="white"/>
</clipPath>
</defs>
</svg>
