<svg width="300" height="300" viewBox="0 0 300 300" fill="none" xmlns="http://www.w3.org/2000/svg">
<g clip-path="url(#clip0_1203_2)">
<path d="M111.39 -14.4C109.383 -14.3415 107.469 -13.5397 106.02 -12.15C104.34 -10.47 103.38 -8.25004 102.6 -6.03004C100.98 -1.65004 99.6 2.84996 98.46 7.40996C97.2 12.57 96.12 18.09 92.58 22.11C95.22 24.75 99.48 24.27 103.14 23.61C113.762 21.6836 124.344 19.5432 134.88 17.19C136.32 14.85 134.4 11.91 132.66 9.68996C127.697 3.5553 123.356 -3.05716 119.7 -10.05C118.2 -13.05 114.72 -14.55 111.39 -14.4ZM109.56 -0.660036C110.28 -0.840036 110.94 -0.120036 111.36 0.539964C113.7 4.25996 116.1 7.97996 118.56 11.7C118.92 12.24 119.4 12.84 120.06 12.9C120.24 13.62 119.34 14.1 118.62 14.34C114.18 15.54 109.68 16.38 105.06 16.86C106.974 11.1342 108.478 5.27935 109.56 -0.660036ZM261.93 7.40996C260.97 7.46996 260.04 7.70996 259.2 8.18996C255.78 9.86996 251.94 12.09 251.4 15.93C251.19 17.55 251.7 19.23 252.24 20.82C256.14 33.21 260.85 45.39 266.28 57.24C266.79 58.38 268.32 58.74 269.49 58.35C270.75 58.11 271.65 57.24 272.55 56.37L291.45 38.07C294.03 35.58 294 31.23 292.32 27.99C290.07 23.64 285.72 20.97 281.55 18.51L264.66 8.45996C263.85 7.88996 262.92 7.55996 261.93 7.40996ZM261.54 20.49C261.84 20.49 262.23 20.61 262.47 20.79C265.05 22.29 267.57 23.88 270.18 25.41L282.39 32.88C283.59 33.57 284.91 34.83 284.43 36.12C284.31 36.51 283.92 36.84 283.62 37.17L274.53 45.27C274.26 45.48 273.93 45.81 273.6 45.75C273.439 45.7323 273.283 45.6803 273.143 45.5975C273.003 45.5147 272.883 45.403 272.79 45.27C270.51 42.81 270.57 38.82 268.41 36.21C264.72 31.83 264.69 25.17 260.91 20.91C260.94 20.61 261.21 20.49 261.51 20.49H261.54ZM148.68 56.82C145.26 56.82 141.54 58.32 140.16 61.38C139.62 62.64 139.5 64.02 139.38 65.34C138.611 76.4507 139.851 87.609 143.04 98.28L141.66 100.5C143.651 101.841 145.935 102.685 148.32 102.96C150.72 103.08 153.3 101.76 153.96 99.48C154.8 96.48 156.9 93.96 158.88 91.5C165.518 83.3014 171.592 74.6616 177.06 65.64C177.84 64.32 178.62 62.82 178.08 61.44C177.24 59.4 174.36 59.4 172.08 59.64C167.64 60.06 163.08 59.82 158.7 58.8C155.4 58.02 152.1 56.88 148.68 56.82ZM151.14 64.74L162.9 66.54C163.14 66.6 163.44 66.6 163.62 66.78C164.1 67.2 163.8 67.98 163.5 68.58L159.9 74.64C159.3 75.6 158.76 76.62 158.1 77.58C156.24 80.4 154.08 83.16 151.68 85.62C151.38 85.98 150.78 86.28 150.48 85.98C150.372 85.8659 150.308 85.7169 150.3 85.56C148.812 79.0519 148.306 72.3577 148.8 65.7C148.86 64.74 150.18 64.62 151.14 64.74ZM-3.35996 81.09C-5.42996 80.97 -7.55996 82.47 -7.76996 84.51L-9.68996 107.37C-10.05 111.51 -10.29 116.01 -7.88996 119.43C-7.13806 120.404 -6.20153 121.22 -5.13395 121.831C-4.06637 122.443 -2.88869 122.838 -1.66827 122.994C-0.447848 123.15 0.791361 123.064 1.97847 122.741C3.16558 122.418 4.27731 121.863 5.25004 121.11C12.7122 114.803 20.7701 109.237 29.31 104.49C30.21 104.01 31.23 103.41 31.59 102.45C31.77 101.85 31.71 101.19 31.59 100.65C30.93 98.07 28.11 96.69 25.59 95.67L3.39004 86.55C2.49004 86.19 2.07004 85.17 1.53004 84.39C0.450041 82.65 -1.34996 81.21 -3.38996 81.09H-3.35996ZM296.64 81.09C294.57 80.97 292.44 82.47 292.23 84.51L290.31 107.37C289.95 111.51 289.71 116.01 292.11 119.43C292.862 120.404 293.798 121.22 294.866 121.831C295.934 122.443 297.111 122.838 298.332 122.994C299.552 123.15 300.791 123.064 301.978 122.741C303.166 122.418 304.277 121.863 305.25 121.11C312.712 114.802 320.77 109.236 329.31 104.49C330.21 104.01 331.23 103.41 331.59 102.45C331.77 101.85 331.71 101.19 331.59 100.65C330.93 98.07 328.11 96.69 325.59 95.67L303.39 86.55C302.49 86.19 302.07 85.17 301.53 84.39C300.45 82.65 298.65 81.21 296.61 81.09H296.64ZM4.02004 94.11C4.41004 94.2 4.80004 94.35 5.16004 94.53L14.64 98.85C15.06 99.09 15.66 99.51 15.6 100.05C15.54 100.41 15.24 100.59 14.94 100.83L0.750041 110.49C0.570041 105.69 0.930041 100.89 1.83004 96.21C1.95004 95.43 2.19004 94.59 2.91004 94.23C3.26558 94.0623 3.6674 94.0201 4.05004 94.11H4.02004ZM304.02 94.11C304.41 94.2 304.8 94.35 305.16 94.53L314.64 98.85C315.06 99.09 315.66 99.51 315.6 100.05C315.54 100.41 315.24 100.59 314.94 100.83L300.72 110.49C300.54 105.69 300.9 100.89 301.8 96.21C301.92 95.43 302.16 94.59 302.88 94.23C303.237 94.0668 303.637 94.0247 304.02 94.11ZM225.9 136.47C221.31 136.41 216.75 140.43 216.81 145.11C216.9 152.97 216.24 160.89 214.77 168.63C214.29 171.42 213.99 174.93 216.39 176.31C226.74 173.37 237.09 170.25 247.35 166.89C250.89 165.72 254.88 164.13 255.96 160.59C250.92 158.7 247.35 154.35 243.81 150.39C240.651 146.93 237.306 143.645 233.79 140.55C232.11 138.87 230.1 137.55 227.85 136.77C227.214 136.595 226.559 136.494 225.9 136.47ZM230.19 148.56C233.959 153.276 238.06 157.717 242.46 161.85C238.2 163.601 233.806 165.006 229.32 166.05C228.57 166.17 227.55 166.17 227.37 165.45C227.91 165.09 228.06 164.34 228.12 163.71C228.51 159.27 228.87 154.86 229.17 150.45C229.23 149.67 229.47 148.74 230.19 148.56ZM179.58 178.11C177.18 178.05 174.9 179.4 173.28 181.17C171.63 182.97 170.58 185.16 169.47 187.29L157.38 211.95C160.11 212.55 162.87 213.27 165.6 213.93C171.3 215.28 177.09 216.63 182.82 218.07C185.627 218.901 188.533 219.355 191.46 219.42C193.77 219.42 196.32 218.7 197.43 216.66C198.51 214.65 196.74 211.47 194.52 212.16C195.78 211.56 196.62 210.24 196.62 208.86C196.65 208.29 196.53 207.66 196.38 207.15C194.571 199.899 191.976 192.867 188.64 186.18C186.72 182.37 183.87 178.23 179.58 178.08V178.11ZM180.66 188.52C180.868 188.489 181.08 188.531 181.26 188.64C181.56 188.82 181.71 189.12 181.86 189.39C183.72 193.29 185.34 197.28 186.66 201.39L189.51 209.67C189.69 210.27 189.75 211.02 189.21 211.26C188.94 211.41 188.7 211.32 188.46 211.26L176.67 208.47C175.62 208.26 174.6 207.87 173.7 207.27C172.86 206.58 172.35 205.41 172.83 204.42L179.28 190.02C179.52 189.39 180.06 188.64 180.66 188.52ZM71.31 191.37C70.8 191.4 70.32 191.49 69.84 191.67C68.37 192.27 67.44 193.92 67.29 195.51C67.17 197.07 67.5 198.69 67.95 200.25L76.14 232.29C76.59 233.85 77.55 235.83 79.14 235.47C80.19 235.2 80.73 234.12 81.12 233.19C84.7212 224.931 90.8296 218.014 98.58 213.42C100.083 212.567 101.339 211.337 102.223 209.852C103.108 208.367 103.59 206.677 103.623 204.949C103.657 203.221 103.24 201.514 102.413 199.995C101.587 198.477 100.38 197.2 98.91 196.29C96.8974 195.139 94.691 194.366 92.4 194.01C85.4512 192.572 78.3989 191.689 71.31 191.37ZM77.82 201.9C82.5 202.5 87.21 203.4 91.77 204.45C92.16 204.57 91.92 205.26 91.62 205.53L79.98 217.53C79.8 217.74 79.47 217.95 79.2 217.83C77.5191 213.07 76.2151 208.185 75.3 203.22C75.12 202.14 76.74 201.78 77.82 201.9ZM35.4 229.89C34.41 229.83 33.42 229.86 32.46 229.89C31.56 229.95 30.51 230.04 29.7 230.49C28.83 231.03 28.29 231.9 27.81 232.74C24.45 238.38 21 243.99 17.7 249.6C15.24 253.77 12.6 258.18 12.72 263.04C12.78 266.7 14.82 270.57 18.27 271.56L43.56 278.67C44.76 279.03 45.99 279.36 47.22 278.97C48.42 278.79 49.62 277.77 49.53 276.48C48.63 263.49 47.04 250.53 44.61 237.78C44.4362 236.098 43.8822 234.477 42.99 233.04C41.28 230.7 38.37 230.04 35.4 229.92V229.89ZM36.66 241.71C36.81 241.71 36.93 241.77 37.02 241.89C35.7 247.47 38.82 253.35 37.65 258.96C36.96 262.26 38.94 265.77 38.07 269.01C38.07 269.31 37.89 269.55 37.62 269.79C37.32 270.03 36.9 269.88 36.54 269.82L24.72 267C24.3 266.88 23.82 266.79 23.52 266.49C22.47 265.59 23.04 263.85 23.79 262.65C26.16 258.51 28.59 254.4 30.99 250.29L35.55 242.58C35.79 242.16 36.27 241.74 36.66 241.74V241.71ZM264.24 251.34C263.328 251.367 262.422 251.498 261.54 251.73C257.94 252.63 254.55 255.63 254.55 259.29C258.79 267.019 262.499 275.027 265.65 283.26C266.25 284.82 267.15 286.65 268.83 286.77C271.29 286.95 272.76 283.23 275.25 283.38C277.8 283.59 280.23 282 281.76 280.02C283.26 278.04 284.16 275.61 284.94 273.18C286.83 267.6 288.78 262.08 290.64 256.47C290.85 255.81 291.15 255.12 290.94 254.43C290.52 253.14 288.84 252.75 287.52 253.05C286.2 253.35 285.03 254.13 283.71 254.28C282.63 254.46 281.55 254.22 280.56 254.01L272.49 252.36C269.79 251.82 267 251.22 264.24 251.34ZM271.44 260.82L280.56 263.4L276.57 274.08C276.42 274.44 276.12 274.89 275.76 274.74C275.607 274.633 275.483 274.488 275.4 274.32L270.6 263.61C270.36 263.04 270.09 262.44 270.18 261.84C270.27 261.24 270.9 260.64 271.47 260.82H271.44ZM111.39 285.54C109.41 285.66 107.49 286.38 106.02 287.82C104.34 289.5 103.38 291.72 102.6 293.94C100.98 298.32 99.6 302.82 98.46 307.38C97.2 312.54 96.12 318.06 92.58 322.08C95.22 324.72 99.48 324.24 103.14 323.58C113.762 321.654 124.344 319.513 134.88 317.16C136.32 314.82 134.4 311.88 132.66 309.66C127.697 303.525 123.356 296.913 119.7 289.92C118.2 286.92 114.72 285.39 111.39 285.57V285.54ZM109.56 299.28C110.28 299.1 110.94 299.82 111.36 300.48C113.7 304.2 116.1 307.92 118.56 311.64C118.92 312.18 119.4 312.78 120.06 312.84C120.24 313.56 119.34 314.04 118.62 314.28C114.18 315.48 109.68 316.32 105.06 316.8C106.974 311.074 108.478 305.219 109.56 299.28Z" fill="#8059D4" fill-opacity="0.28"/>
<path d="M190.71 -15.63C188.55 -15.51 186.42 -14.34 185.01 -12.63C183.246 -10.2245 182.328 -7.30229 182.4 -4.32C182.28 3.63 182.1 11.58 182.01 19.53C182.01 20.22 182.01 20.97 182.49 21.33C183.21 22.11 184.44 21.72 185.43 21.27C193.77 17.49 202.68 15.39 211.56 13.17C213.12 12.87 214.62 12.36 216 11.55C218.91 9.44999 219.72 5.42999 217.86 2.33999C216.87 0.809994 216.93 -1.41001 215.46 -2.46001C208.41 -7.56001 201.18 -12.69 192.9 -15.33C192.2 -15.5389 191.47 -15.6302 190.74 -15.6L190.71 -15.63ZM191.58 -5.70001C192.48 -5.94001 193.32 -5.49 194.1 -5.1L199.74 -2.16001C203.04 -0.390006 206.52 1.49999 208.38 4.74C203.19 6.44999 197.88 7.86 192.54 9C192.09 9.03 191.49 9.12 191.04 8.88C190.77 8.58 190.74 8.1 190.74 7.68C190.56 3.24 190.86 -1.32 191.58 -5.70001ZM26.88 3.75C25.5648 3.83752 24.3271 4.40304 23.4 5.33999C21.66 7.13999 21.12 9.83999 20.7 12.3L16.08 38.04C15.54 40.98 15 44.04 15.6 46.98C16.14 49.92 18.06 52.8 21 53.64C22.7667 54.1 24.6438 53.8411 26.22 52.92L26.64 49.44C33.78 49.26 39.9 44.34 45.36 39.72L62.46 25.32C62.94 24.9 63.42 24.48 63.66 23.88C64.2 22.44 63 21 61.74 20.1C57 16.56 50.94 15.36 45.18 13.86C39.48 12.3 33.48 10.02 30.12 5.16C29.4 4.11 28.17 3.66 26.88 3.75ZM32.04 15.78C37.38 17.76 42.72 19.68 48 21.66C48.3 21.78 48.6 21.9 48.78 22.2C49.02 22.62 48.72 23.16 48.36 23.52C43.2871 29.9323 36.9052 35.1892 29.64 38.94C29.16 39.18 28.5 39.42 28.14 39C27.9 38.7 27.96 38.28 28.02 37.98C29.1 30.54 30.42 23.1 32.04 15.78ZM226.86 52.47C224.88 52.62 222.99 53.79 222.78 55.71C222.15 61.56 217.95 66.42 213.66 70.5C209.31 74.55 204.54 78.48 202.05 83.85C201.36 85.23 200.97 87.09 202.14 88.08C202.65 88.5 203.25 88.68 203.88 88.8L225.78 93.36C232.77 94.86 240.48 96.27 246.87 93.06L248.88 95.91C250.68 95.94 252.51 95.31 253.83 94.05C256.02 91.95 256.32 88.47 255.42 85.65C254.361 82.8254 252.773 80.2289 250.74 78C245.31 71.19 239.94 64.32 234.48 57.51C232.95 55.56 231.18 53.43 228.78 52.68C228.159 52.4883 227.508 52.4171 226.86 52.47ZM72.6 63.06C71.4 63.06 70.2 63.36 69.15 63.96C65.43 66.12 64.89 71.1 65.01 75.36C65.2404 82.8316 66.2866 90.2557 68.13 97.5C68.25 98.04 68.43 98.64 68.73 99.12C69.39 100.32 70.77 101.1 72.15 101.04C69.87 101.46 69.81 105.12 71.73 106.38C73.65 107.64 76.23 107.04 78.27 105.96C80.85 104.64 83.07 102.66 85.23 100.68L98.43 88.86L104.73 83.22L82.41 67.26C80.43 65.88 78.45 64.44 76.17 63.66C75.03 63.27 73.77 63.06 72.57 63.06H72.6ZM226.14 65.94C231.03 71.64 235.74 77.58 240.21 83.61C240.39 83.85 240.66 84.18 240.6 84.54C240.48 85.08 239.79 85.2 239.25 85.23C231.09 85.38 222.9 83.73 215.43 80.52C214.95 80.37 214.44 80.04 214.44 79.56C214.44 79.2 214.68 78.96 214.89 78.72C218.58 74.46 222.39 70.23 226.14 65.97V65.94ZM73.14 73.68C73.74 73.5 74.55 73.89 75.09 74.34L87.57 83.94C88.47 84.6 88.59 85.86 88.17 86.88C87.75 87.84 86.91 88.62 86.13 89.34L77.07 97.38C76.89 97.56 76.71 97.74 76.41 97.74C75.81 97.8 75.51 97.08 75.39 96.48L73.95 87.84C73.1868 83.5965 72.7058 79.3071 72.51 75C72.51 74.7 72.51 74.34 72.69 74.04C72.81 73.83 72.99 73.74 73.17 73.68H73.14ZM141.81 126.66C140.16 126.78 138.57 127.41 137.43 128.58C131.37 134.85 127.47 142.77 123.63 150.63C122.85 152.22 123.99 154.14 123.84 155.97C123.66 159.57 126.24 162.72 129.84 163.2C131.4 163.35 132.96 162.99 134.49 162.6C143.34 160.29 152.19 157.95 161.34 157.32C162.45 157.23 163.71 157.02 163.98 155.97C164.19 155.43 163.86 154.77 163.53 154.17C159.63 147.18 155.73 140.28 151.89 133.32C150.528 130.662 148.323 128.531 145.62 127.26C144.42 126.75 143.1 126.57 141.81 126.66ZM80.91 131.07C80.0458 131.01 79.1774 131.07 78.33 131.25C69.63 132.93 60.87 134.01 52.14 134.49C48.99 136.41 48.24 140.85 49.38 144.39C50.49 147.93 53.19 150.69 55.68 153.39L61.38 159.33C62.07 160.08 62.85 160.89 63.27 161.88C63.81 163.08 63.78 164.49 64.23 165.78C64.65 167.07 65.88 168.27 67.2 167.94C67.89 167.79 68.34 167.16 68.79 166.65L79.95 152.97C81.6689 151.102 83.0677 148.963 84.09 146.64C84.99 144.3 85.02 141.42 83.49 139.35C82.05 137.31 84.45 134.1 83.01 132.09C82.5 131.43 81.75 131.16 80.91 131.07ZM143.16 136.47C145.86 140.07 148.26 143.88 150.27 147.87C150.45 148.23 150.66 148.71 150.51 149.07C150.27 149.52 149.7 149.73 149.28 149.88C144 151.44 138.63 152.64 133.29 153.6C133.41 149.88 135.57 146.58 137.64 143.49L141.24 138.21C141.69 137.49 142.26 136.71 143.16 136.5V136.47ZM75.9 144.27C76.05 144.27 76.23 144.24 76.41 144.33C76.71 144.57 76.53 145.05 76.29 145.38L69.36 154.38L62.34 148.05C61.89 147.66 62.1 146.79 62.55 146.4C63 146.01 63.66 145.92 64.26 145.8L75.87 144.27H75.9ZM1.41 163.11C0.374135 162.945 -0.686999 163.146 -1.59 163.68C-3.33 164.76 -4.23 166.86 -4.35 168.93C-4.44 169.86 -4.35 170.94 -4.95 171.69C-10.05 177.84 -15.15 184.05 -20.19 190.26C-21.9 192.36 -23.73 194.91 -23.1 197.46C-22.95 198.03 -22.68 198.63 -22.23 199.08C-21.48 199.74 -20.28 199.8 -19.26 199.77C-9.51 199.92 0.240005 200.97 9.81001 203.01C14.91 203.85 19.71 200.4 20.58 195.3C21.06 191.16 18.72 187.29 16.44 183.81L3.9 164.61C3.61204 164.201 3.24187 163.856 2.81314 163.597C2.3844 163.339 1.90652 163.173 1.41 163.11ZM301.41 163.11C300.374 162.945 299.313 163.146 298.41 163.68C296.67 164.76 295.77 166.86 295.65 168.93C295.56 169.86 295.65 170.94 295.05 171.69C289.95 177.84 284.85 184.05 279.81 190.26C278.1 192.36 276.27 194.91 276.9 197.46C277.05 198.03 277.32 198.63 277.77 199.08C278.52 199.74 279.72 199.8 280.74 199.77C290.49 199.92 300.24 200.97 309.81 203.01C314.91 203.85 319.71 200.4 320.58 195.3C321.06 191.16 318.72 187.29 316.44 183.81L303.9 164.61C303.612 164.201 303.242 163.856 302.813 163.597C302.384 163.339 301.907 163.173 301.41 163.11ZM-0.899995 178.2C-0.0899953 178.2 0.510004 178.8 0.990004 179.43C3.99 183.12 6.6 187.17 8.73 191.49C3.03 190.89 -2.67 190.35 -8.37 189.72C-8.76 189.66 -9.09 189.66 -9.33 189.36C-9.63 188.91 -9.3 188.25 -9.03 187.86L-2.73 179.55C-2.28 178.89 -1.68 178.23 -0.899995 178.2ZM299.1 178.2C299.91 178.2 300.51 178.8 300.99 179.43C303.99 183.12 306.6 187.17 308.73 191.49C303.03 190.89 297.33 190.35 291.63 189.72C291.24 189.66 290.91 189.66 290.67 189.36C290.37 188.91 290.7 188.25 290.97 187.86L297.27 179.55C297.72 178.89 298.32 178.23 299.1 178.2ZM232.32 203.7C229.756 204.069 227.429 205.398 225.81 207.42C224.751 208.789 224.057 210.405 223.795 212.116C223.532 213.827 223.71 215.576 224.31 217.2C227.406 225.655 227.763 234.871 225.33 243.54C225.03 244.53 224.76 245.73 225.39 246.57C226.41 247.86 228.42 246.96 229.74 246C238.59 239.49 247.47 232.89 256.38 226.38C257.73 225.48 258.9 224.4 259.86 223.11C260.76 221.79 261.09 219.93 260.31 218.55C259.781 217.698 259.062 216.979 258.21 216.45C252.853 212.589 247.218 209.129 241.35 206.1C239.348 204.924 237.155 204.112 234.87 203.7C234.034 203.581 233.186 203.581 232.35 203.7H232.32ZM235.26 214.59C239.46 216.63 243.66 218.94 247.68 221.43C248.58 222.03 249.6 223.32 248.79 224.01C244.939 227.277 240.836 230.237 236.52 232.86C236.22 232.8 236.13 232.41 236.1 232.17L234.66 215.49C234.66 215.1 234.87 214.41 235.26 214.59ZM133.74 228.54C130.38 228.39 127.35 231.03 125.79 234.09C124.29 237.15 123.84 240.6 123.03 243.9C121.942 248.257 120.159 252.41 117.75 256.2C116.49 258.15 115.2 260.7 116.64 262.38C117.63 263.49 119.31 263.46 120.84 263.37C131.34 262.56 141.78 261.09 152.13 258.87C155.22 258.21 158.43 257.46 161.46 258.06C163.8 258.51 166.14 256.8 167.13 254.61C167.96 252.359 168.238 249.941 167.94 247.56C167.1 247.65 166.2 247.68 165.33 247.8C157.257 240.124 147.867 233.965 137.61 229.62C136.38 229.14 135.09 228.63 133.71 228.54H133.74ZM133.05 238.17C133.243 238.096 133.457 238.096 133.65 238.17C139.826 240.747 145.58 244.236 150.72 248.52C150.81 248.58 150.96 248.7 151.02 248.88C151.14 249.27 150.6 249.66 150.12 249.78C146.85 250.8 143.43 251.46 140.07 251.88C138.9 252 137.76 252.03 136.62 252.15L129.6 252.6C128.91 252.6 128.1 252.51 127.95 251.91C127.86 251.67 127.98 251.4 128.04 251.16L131.76 239.85C132 239.16 132.45 238.35 133.05 238.17ZM190.74 284.34C189.635 284.424 188.559 284.733 187.579 285.249C186.599 285.765 185.734 286.477 185.04 287.34C183.24 289.74 182.34 292.65 182.4 295.65C182.28 303.6 182.1 311.55 182.01 319.5C182.01 320.19 182.01 320.94 182.49 321.3C183.21 322.08 184.44 321.69 185.43 321.24C193.77 317.46 202.68 315.36 211.56 313.14C213.12 312.84 214.62 312.3 215.97 311.49C218.88 309.39 219.69 305.37 217.83 302.28C216.84 300.75 216.9 298.53 215.43 297.48C208.38 292.38 201.15 287.25 192.87 284.61C192.17 284.401 191.44 284.31 190.71 284.34H190.74ZM191.58 294.3C192.48 294.03 193.32 294.48 194.1 294.9L199.74 297.84C203.04 299.58 206.52 301.44 208.38 304.68C203.19 306.39 197.88 307.83 192.54 308.97C192.09 309.03 191.49 309.12 191.04 308.88C190.77 308.58 190.74 308.1 190.74 307.68C190.56 303.24 190.86 298.68 191.58 294.3Z" fill="#E92063" fill-opacity="0.27"/>
</g>
<defs>
<clipPath id="clip0_1203_2">
<rect width="300" height="300" fill="white"/>
</clipPath>
</defs>
</svg>
